# xmcd
#
# Track frame offsets:
#	150
#	20257
#	31954
#	52037
#	64063
#	76999
#	92842
#	106661
#	124715
#	137259
#	151338
#	169591
#	189173
#	204125
#
# Disc length: 2992 seconds
#
# Revision: 1
# Processed by: cddbd v1.5.1PL2 Copyright (c) Steve Scherf et al.
# Submitted via: EasyCDDAExtractor 9.1.2.1
#
DISCID=a00bae0e
DTITLE=Various Artist - Mr Music Country 04-11
DYEAR=1900
DGENRE=Country
TTITLE0=Aaron RussellThat fifty-seven Chevy - That fifty-seven Chevy
TTITLE1=Barb Marchuk - Fine tune
TTITLE2=Darrell McCall - Mary dear
TTITLE3=Wesley Ialacy - She wants to kill me
TTITLE4=Karl Hlavinka - Pride
TTITLE5=Billy Lee Davis - Nobody's fault but mine
TTITLE6=Mike Siler - Dreams of a dreamer
TTITLE7=Kelly Weaver - All in a day's pain
TTITLE8="Cowboy" Jack Clement - Every place I've ever been
TTITLE9=Jerry Sires Band - Sophronie
TTITLE10=Tony Joe White w. Emmylou Harris - Wild wolf calling me
TTITLE11=Charlie Robison - Flatland boogie
TTITLE12=Bo Göran Svensson - Senorita mas fina
TTITLE13=Mona McCall - The deepening snow
EXTD=
EXTT0=
EXTT1=
EXTT2=
EXTT3=
EXTT4=
EXTT5=
EXTT6=
EXTT7=
EXTT8=
EXTT9=
EXTT10=
EXTT11=
EXTT12=
EXTT13=
PLAYORDER=
